<svg width="24.2339mm" height="6.5312mm" version="1.1" xmlns="http://www.w3.org/2000/svg">
 <title>Kyma Logo Silhouette</title>
 <g fill="#0b74de">
  <path d="m34.383 20.325v-15.825h3.45v6.5417l5.2334-6.5417h4.0083l-5.3 6.1833 5.8333 9.6417h-3.8583l-4.2083-6.9917-1.6667 1.95v5.0667z"/>
  <path d="m47.367 24.275 0.7083-2.6083c0.1583 0.0416 0.4333 0.1083 0.8333 0.1833a6.1667 6.1667 0 0 0 1.325 0.125c0.313 0.0144 0.623-0.0639 0.8917-0.225a1.5333 1.5333 0 0 0 0.5417-0.7667l0.2166-0.5583-4.3333-11.5h3.5083l2.5 7.4 2.5-7.4h3.2917l-4.725 12.6a8.425 8.425 0 0 1-0.6417 1.3167 4.4 4.4 0 0 1-0.8333 1c-0.3241 0.28-0.701 0.4925-1.1083 0.625a4.4 4.4 0 0 1-1.475 0.2166 11.583 11.583 0 0 1-2.0167-0.1416c-0.4917-0.0917-0.8833-0.1834-1.1833-0.2667z"/>
  <path d="m61.258 20.325v-11.4h3.4v1.7833a4.9167 4.9167 0 0 1 0.6084-0.6833 5.4583 5.4583 0 0 1 0.8333-0.65 4.4667 4.4667 0 0 1 1.025-0.4833 3.65 3.65 0 0 1 1.2333-0.1917 3.55 3.55 0 0 1 2.1334 0.5333 2.5 2.5 0 0 1 0.95 1.475c0.175-0.2083 0.3833-0.4333 0.6166-0.675 0.2503-0.2522 0.53-0.4732 0.8334-0.6583a4.7 4.7 0 0 1 1.0333-0.4833 3.6667 3.6667 0 0 1 1.2417-0.1917 3.9333 3.9333 0 0 1 1.4583 0.25 2.825 2.825 0 0 1 1.0333 0.725c0.2784 0.3213 0.4832 0.6996 0.6 1.1083 0.1358 0.454 0.2004 0.9263 0.1917 1.4v8.1417h-3.4167v-7.2417c0.0233-0.406-0.06-0.811-0.2416-1.175a1.0667 1.0667 0 0 0-0.9834-0.3916 2.1917 2.1917 0 0 0-1.1583 0.325 7.425 7.425 0 0 0-1.0917 0.8333v7.6667h-3.4v-7.2584c0.0233-0.406-0.06-0.811-0.2416-1.175a1.075 1.075 0 0 0-0.9834-0.3916 2.225 2.225 0 0 0-1.175 0.325 7.5 7.5 0 0 0-1.1 0.8333v7.6667z"/>
  <path d="m87.352 8.7051a4.275 4.275 0 0 0-0.42578 0.019531 10.233 10.233 0 0 0-1.9082 0.16797 7.9333 7.9333 0 0 0-1.5352 0.45703 7.6167 7.6167 0 0 0-1.2148 0.65039 8.5 8.5 0 0 0-0.97656 0.7168l1.4414 1.9746a7.275 7.275 0 0 1 1.668-1.0254 5.125 5.125 0 0 1 2-0.39062 1.5333 1.5333 0 0 1 1.166 0.375 1.4 1.4 0 0 1 0.3418 1v0.27539a12.008 12.008 0 0 0-5.416 1.416 3.4583 3.4583 0 0 0-1.668 3.0664 3.2417 3.2417 0 0 0 0.29297 1.3086 2.6917 2.6917 0 0 0 0.69141 0.97461 3.1417 3.1417 0 0 0 1.0254 0.5918 3.6333 3.6333 0 0 0 1.1992 0.19141 4.8083 4.8083 0 0 0 2.1992-0.47461 5.3833 5.3833 0 0 0 1.7168-1.3418 4.2917 4.2917 0 0 0 0.08398 0.90039c0.05 0.275 0.10918 0.52539 0.17578 0.77539h3.3828c-0.1321-0.3509-0.2162-0.7184-0.25-1.0918-0.0515-0.554-0.07341-1.1117-0.06641-1.668v-4.3828a4.85 4.85 0 0 0-1.0176-3.334 4.275 4.275 0 0 0-2.9062-1.1523zm0.61524 6.1113v2.1094a3.2083 3.2083 0 0 1-1.041 0.7168 3.8333 3.8333 0 0 1-1.5254 0.27344c-0.3217 0.0166-0.63969-0.076425-0.90039-0.26562a1 1 0 0 1-0.3418-0.83398h-0.01563a1.4833 1.4833 0 0 1 0.9082-1.291 7.975 7.975 0 0 1 2.916-0.70898z"/>
 </g>
 <g fill="#0b74de">
  <path d="m0 5v9.6a4.575 4.575 0 0 1 2.0833-0.5h2.0834a11.95 11.95 0 0 0 7.6166-2.5c-0.55-0.5-1.0916-1-1.6166-1.5-2.6667-2.4917-5.3917-4.8583-10.167-5.1z"/>
  <path d="m25.508 5.1167c-4.675 0.225-7.175 2.5666-9.7666 5.0416-2.8417 2.7-5.8334 5.4917-11.617 5.4917h-2.0417a2.0583 2.0583 0 0 0-1.8166 1.0917 2.1167 2.1167 0 0 0-0.2667 0.975v2.6166h25.5z"/>
  <path d="M 12.2583,4.1667 C 10.0833,2.075 7.9,0 3.55,0 v 4.1667 a 13.8,13.8 0 0 1 5,2.6916 13.275,13.275 0 0 0 3.7083,-2.6916 z"/>
  <path d="m21.283 0.7167c-3.6166 0.2083-5.525 2.0333-7.5 3.9583a18.042 18.042 0 0 1-4.0083 3.1417c0.4583 0.4166 0.9167 0.8333 1.3583 1.275 0.4417 0.4416 1.1584 1.0916 1.7584 1.6166 0.6166-0.5333 1.2166-1.1 1.825-1.6666 1.8833-1.7917 3.825-3.6 6.6083-4.6334z"/>
 </g>
</svg>
